# xmcd
#
# Track frame offsets:
#	150
#	14592
#	29025
#	43785
#	56302
#	68757
#	81072
#	94367
#	107570
#	123580
#	136322
#	150990
#	165150
#	180692
#	195890
#
# Disc length: 2888 seconds
#
# Revision: 0
# Processed by: cddbd v1.5PL3 Copyright (c) Steve Scherf et al.
# Submitted via: dBpowerAMP V4.0
#
DISCID=bb0b460f
DTITLE=Barón De Apodaca - 15 Exitos De Los Barón de Apodaca Vol. 2
DYEAR=1995
DGENRE=Latin
TTITLE0=Aca Entre Nos
TTITLE1=Pa Que Sientas Lo Que Siento
TTITLE2=Cuando No Se De Ti
TTITLE3=La Huella De Mis Besos
TTITLE4=El Parrandero
TTITLE5=La Querendona
TTITLE6=Devuelveme El Corazón
TTITLE7=Tu Casamiento
TTITLE8=Cariño Santo
TTITLE9=Cumbia Romántica
TTITLE10=Cielo Rojo
TTITLE11=Prieta Consentida
TTITLE12=Quiéreme Chiquitita
TTITLE13=Jacarandosa
TTITLE14=Esta Noche Te Voy A Estrenar
EXTD=
EXTT0=
EXTT1=
EXTT2=
EXTT3=
EXTT4=
EXTT5=
EXTT6=
EXTT7=
EXTT8=
EXTT9=
EXTT10=
EXTT11=
EXTT12=
EXTT13=
EXTT14=
PLAYORDER=
